<svg xmlns="http://www.w3.org/2000/svg" width="140px" height="100px" viewBox="0 0 742 86" version="1.1" nighteye="disabled">
<g id="green">
<path fill="#8dc63f" opacity="1.00" d=" M 49.82 0.00 L 58.07 0.00 C 64.58 0.69 71.29 3.20 75.43 8.51 C 79.60 13.65 80.77 20.46 80.75 26.91 C 80.75 45.61 80.74 64.30 80.75 83.00 C 72.08 83.00 63.42 83.00 54.75 83.00 C 54.72 67.67 54.82 52.35 54.71 37.03 C 54.64 32.49 53.79 27.11 49.43 24.71 C 41.47 20.57 31.36 23.77 25.94 30.58 C 26.08 48.05 25.96 65.53 26.00 83.00 C 17.33 83.00 8.67 83.00 0.00 83.00 L 0.00 2.00 C 8.67 2.00 17.34 2.00 26.00 2.00 C 25.99 5.09 26.01 8.19 25.98 11.28 C 32.17 4.66 40.86 0.84 49.82 0.00 Z"/>
<path fill="#8dc63f" opacity="1.00" d=" M 123.79 0.00 L 133.43 0.00 C 142.16 0.67 151.36 2.95 157.83 9.21 C 163.94 15.04 166.24 23.76 166.24 31.98 C 166.27 48.99 166.24 65.99 166.25 83.00 C 157.58 83.00 148.91 83.00 140.24 83.00 C 140.25 80.42 140.26 77.85 140.30 75.28 C 132.02 83.61 119.15 86.65 107.84 84.05 C 100.55 82.18 93.69 77.58 90.20 70.78 C 86.23 63.08 86.32 53.53 89.90 45.70 C 93.68 37.70 102.35 33.14 110.88 32.24 C 121.27 31.18 132.67 33.47 140.30 41.03 C 140.06 36.40 141.16 30.96 137.89 27.11 C 134.31 22.78 128.27 21.75 122.95 21.95 C 114.90 22.03 107.39 25.71 101.20 30.64 C 98.00 24.53 94.65 18.51 91.54 12.36 C 100.64 4.95 112.13 0.82 123.79 0.00 M 117.45 51.38 C 113.66 53.30 112.09 58.26 113.91 62.05 C 115.65 65.35 119.34 67.09 122.90 67.58 C 129.11 68.39 136.04 66.89 140.32 62.04 C 139.93 58.95 141.45 54.73 138.11 52.85 C 132.17 48.87 123.84 47.96 117.45 51.38 Z"/>
<path fill="#8dc63f" opacity="1.00" d=" M 226.89 0.00 L 234.32 0.00 C 242.75 0.48 250.58 5.75 253.56 13.75 C 259.39 6.12 268.36 1.11 277.88 0.00 L 285.32 0.00 C 290.33 0.62 295.51 2.11 299.22 5.73 C 303.92 10.08 305.77 16.69 305.76 22.94 C 305.73 42.96 305.75 62.98 305.75 83.00 C 297.17 83.00 288.58 83.00 280.00 83.00 C 279.99 66.62 280.02 50.24 279.99 33.86 C 280.10 29.83 278.43 25.23 274.33 23.78 C 267.43 21.22 259.38 24.60 255.26 30.43 C 254.79 32.91 255.01 35.47 254.98 37.98 C 255.03 52.99 254.99 67.99 255.00 83.00 C 246.33 83.00 237.67 83.00 229.00 83.00 C 229.01 67.34 228.98 51.68 229.02 36.01 C 228.96 32.47 228.89 28.46 226.31 25.71 C 223.51 22.78 219.05 22.59 215.29 23.23 C 210.65 24.05 207.03 27.34 203.96 30.70 C 204.05 48.13 203.97 65.57 204.00 83.00 C 195.33 83.00 186.67 83.00 178.00 83.00 C 178.00 56.00 178.00 29.00 178.00 2.00 C 186.67 2.00 195.34 2.00 204.01 2.00 C 203.99 5.09 204.01 8.18 203.98 11.27 C 210.02 4.99 218.25 1.02 226.89 0.00 Z"/>
<path fill="#8dc63f" opacity="1.00" d=" M 351.50 0.00 L 359.52 0.00 C 371.73 0.84 383.53 7.45 389.95 17.97 C 396.25 27.73 397.57 39.65 397.00 51.00 C 377.78 51.03 358.55 50.93 339.33 51.05 C 341.16 55.68 344.37 59.94 349.10 61.88 C 359.11 66.21 370.97 63.31 379.57 57.15 C 383.29 62.88 387.13 68.52 390.90 74.22 C 382.09 81.62 370.40 84.44 359.13 84.95 C 346.10 85.53 332.35 81.39 323.33 71.62 C 308.59 55.56 309.10 27.94 324.43 12.41 C 331.50 5.08 341.40 0.83 351.50 0.00 M 348.81 21.91 C 343.65 23.44 340.27 28.17 339.04 33.22 C 350.15 33.28 361.27 33.26 372.38 33.23 C 371.55 29.95 370.26 26.57 367.47 24.45 C 362.26 20.41 354.93 20.17 348.81 21.91 Z"/>
</g>
<g id="gray">
<path fill="#717174" opacity="1.00" d=" M 481.95 0.00 L 491.24 0.00 C 502.29 0.83 513.33 5.68 519.97 14.82 C 514.35 20.07 508.72 25.31 503.07 30.52 C 497.06 22.27 484.58 20.47 476.35 26.34 C 468.50 31.96 467.09 43.51 470.94 51.89 C 474.72 60.26 485.37 63.97 493.81 60.93 C 497.59 59.78 500.46 56.94 503.03 54.08 C 508.67 59.42 514.37 64.68 519.98 70.06 C 514.51 77.18 506.48 82.03 497.71 83.82 C 483.32 86.87 467.10 84.10 455.91 74.13 C 438.37 58.82 437.70 28.53 454.19 12.22 C 461.54 4.89 471.71 0.90 481.95 0.00 Z"/>
<path fill="#717174" opacity="1.00" d=" M 558.87 0.00 L 568.00 0.00 C 578.46 0.87 588.90 5.02 596.19 12.75 C 611.79 28.60 611.50 57.03 595.62 72.58 C 588.69 79.71 579.00 83.70 569.20 84.66 C 556.41 86.07 542.59 82.97 532.95 74.11 C 515.89 59.02 514.72 29.86 530.27 13.31 C 537.53 5.24 548.16 0.85 558.87 0.00 M 558.40 23.58 C 545.28 27.41 542.61 45.75 550.27 55.71 C 556.40 64.10 570.48 63.96 576.71 55.76 C 582.54 48.03 582.49 36.19 576.38 28.63 C 572.12 23.43 564.71 21.85 558.40 23.58 Z"/>
<path fill="#717174" opacity="1.00" d=" M 663.39 0.00 L 670.44 0.00 C 678.93 0.43 686.85 5.70 689.86 13.76 C 695.73 6.10 704.78 1.02 714.38 0.00 L 721.44 0.00 C 727.14 0.61 733.06 2.59 736.85 7.12 C 740.07 10.86 741.48 15.77 742.00 20.59 L 742.00 83.00 C 733.41 83.00 724.83 83.00 716.25 83.00 C 716.25 66.66 716.26 50.33 716.26 33.99 C 716.40 30.02 714.89 25.46 710.90 23.89 C 703.91 21.11 694.83 24.57 691.38 31.13 C 691.06 48.41 691.35 65.71 691.25 83.00 C 682.58 83.00 673.92 83.00 665.25 83.00 C 665.27 67.32 665.22 51.64 665.28 35.97 C 665.20 32.81 665.19 29.40 663.35 26.69 C 661.76 24.29 658.87 23.08 656.08 22.98 C 650.20 22.38 644.54 25.57 640.93 30.03 C 639.93 31.45 640.35 33.34 640.21 34.97 C 640.30 50.98 640.23 66.99 640.25 83.00 C 631.58 83.00 622.92 83.00 614.25 83.00 C 614.25 56.00 614.25 29.00 614.25 2.00 C 622.92 2.00 631.59 2.00 640.26 2.00 C 640.24 5.09 640.26 8.17 640.20 11.26 C 646.37 5.01 654.63 0.89 663.39 0.00 Z"/>
</g>
<g id="black">
<path fill="#231f20" opacity="1.00" d=" M 403.46 69.00 C 403.68 59.27 411.95 50.07 421.85 49.83 C 430.22 50.34 437.08 57.92 438.20 65.99 C 438.92 70.70 436.30 75.90 431.65 77.43 C 425.95 79.23 422.34 84.75 416.40 86.00 L 414.07 86.00 C 406.74 84.12 403.03 76.06 403.46 69.00 M 414.15 60.26 C 411.06 63.90 410.76 68.94 411.62 73.45 C 412.10 73.62 413.06 73.98 413.53 74.15 C 412.98 71.82 411.98 69.37 412.88 66.99 C 414.31 62.34 418.43 59.37 421.76 56.11 C 418.94 56.84 415.93 57.76 414.15 60.26 M 428.16 58.23 C 430.97 62.09 433.69 66.19 433.59 71.20 C 436.58 66.27 433.46 59.86 428.16 58.23 M 420.74 64.02 C 424.05 64.28 419.64 60.85 420.74 64.02 M 420.38 64.58 C 419.90 65.12 419.90 65.12 420.38 64.58 C 420.47 64.44 420.65 64.16 420.74 64.02 C 420.65 64.16 420.47 64.44 420.38 64.58 M 421.69 76.66 C 423.49 76.26 425.73 76.67 427.18 75.25 C 430.03 72.67 430.09 68.08 428.10 64.97 C 427.05 69.41 424.28 73.03 421.69 76.66 M 407.99 76.56 C 410.13 81.28 416.25 83.70 420.57 80.29 C 416.40 78.96 412.17 77.84 407.99 76.56 Z"/>
</g>
</svg>